<svg height='100px' width='100px'  fill="#000000" xmlns="http://www.w3.org/2000/svg" xmlns:xlink="http://www.w3.org/1999/xlink" version="1.1" x="0px" y="0px" viewBox="0 0 100 100" enable-background="new 0 0 100 100" xml:space="preserve"><path d="M1,9.513v14.565v2v64.409h98V26.078v-2V9.513H1z M97,88.487H3V26.078h94V88.487z M3,24.078V11.513h94v12.565H3z"></path><rect x="8.844" y="16.796" width="5.091" height="2"></rect><rect x="22.358" y="16.796" width="5.092" height="2"></rect><rect x="35.874" y="16.796" width="5.09" height="2"></rect><path d="M25.419,71.353c9.238,0,16.753-7.516,16.753-16.753c0-9.238-7.515-16.753-16.753-16.753  c-9.237,0-16.752,7.515-16.752,16.753C8.667,63.837,16.182,71.353,25.419,71.353z M39.676,50.871l-13.257,2.521V39.897  C32.818,40.33,38.099,44.851,39.676,50.871z M24.419,39.897v12.97l-11.241-6.491C15.654,42.702,19.743,40.213,24.419,39.897z   M12.189,48.115l13.052,7.536l14.815-2.817c0.069,0.58,0.116,1.167,0.116,1.766c0,8.135-6.618,14.753-14.753,14.753  c-8.134,0-14.752-6.618-14.752-14.753C10.667,52.271,11.224,50.075,12.189,48.115z"></path><path d="M59.505,59.831H48.48v16.888h11.024V59.831z M57.505,74.719H50.48V61.831h7.024V74.719z"></path><path d="M75.419,52.128H64.395v24.591h11.024V52.128z M73.419,74.719h-7.024V54.128h7.024V74.719z"></path><path d="M91.333,37.847H80.309v38.871h11.024V37.847z M89.333,74.718h-7.024V39.847h7.024V74.718z"></path></svg>