<svg height='100px' width='100px'  fill="#000000" xmlns:x="http://ns.adobe.com/Extensibility/1.0/" xmlns:i="http://ns.adobe.com/AdobeIllustrator/10.0/" xmlns:graph="http://ns.adobe.com/Graphs/1.0/" xmlns="http://www.w3.org/2000/svg" xmlns:xlink="http://www.w3.org/1999/xlink" version="1.1" x="0px" y="0px" viewBox="0 0 100 100" style="enable-background:new 0 0 100 100;" xml:space="preserve"><g><g i:extraneous="self"><g><path d="M5273.1,2400.1v-2c0-2.8-5-4-9.7-4s-9.7,1.3-9.7,4v2c0,1.8,0.7,3.6,2,4.9l5,4.9c0.3,0.3,0.4,0.6,0.4,1v6.4     c0,0.4,0.2,0.7,0.6,0.8l2.9,0.9c0.5,0.1,1-0.2,1-0.8v-7.2c0-0.4,0.2-0.7,0.4-1l5.1-5C5272.4,2403.7,5273.1,2401.9,5273.1,2400.1z      M5263.4,2400c-4.8,0-7.4-1.3-7.5-1.8v0c0.1-0.5,2.7-1.8,7.5-1.8c4.8,0,7.3,1.3,7.5,1.8C5270.7,2398.7,5268.2,2400,5263.4,2400z"></path><path d="M5268.4,2410.3c-0.6,0-1,0.4-1,1c0,0.6,0.4,1,1,1h4.3c0.6,0,1-0.4,1-1c0-0.6-0.4-1-1-1H5268.4z"></path><path d="M5272.7,2413.7h-4.3c-0.6,0-1,0.4-1,1c0,0.6,0.4,1,1,1h4.3c0.6,0,1-0.4,1-1C5273.7,2414.1,5273.3,2413.7,5272.7,2413.7z"></path><path d="M5272.7,2417h-4.3c-0.6,0-1,0.4-1,1c0,0.6,0.4,1,1,1h4.3c0.6,0,1-0.4,1-1C5273.7,2417.5,5273.3,2417,5272.7,2417z"></path></g><g><path d="M7.6,61.2h15.9c0.9,0,1.5-0.8,1.4-1.7l-0.5-3.2c-0.3-2.4-1.9-4.4-4-5.3c-1.4,0.9-3.1,1.5-4.9,1.5c-1.8,0-3.5-0.5-4.9-1.5     c-2.1,0.9-3.7,2.8-4,5.3l-0.5,3.2C6,60.4,6.7,61.2,7.6,61.2z"></path><circle cx="15.5" cy="43.7" r="6.2"></circle><path d="M26,68.1H5c-1.4,0-2.5,1.1-2.5,2.5v18.2c0,1.4,1.1,2.5,2.5,2.5h21c1.4,0,2.5-1.1,2.5-2.5V70.6     C28.6,69.2,27.4,68.1,26,68.1z"></path><path d="M42.1,46.8h15.9c0.9,0,1.5-0.8,1.4-1.7l-0.4-3.2c-0.3-2.4-1.9-4.4-4-5.3c-1.4,0.9-3.1,1.5-4.9,1.5     c-1.8,0-3.5-0.5-4.9-1.5c-2.1,0.9-3.7,2.8-4,5.3l-0.5,3.2C40.5,46,41.2,46.8,42.1,46.8z"></path><circle cx="50" cy="29.2" r="6.2"></circle><path d="M60.5,53.7h-21c-1.4,0-2.5,1.1-2.5,2.5v32.7c0,1.4,1.1,2.5,2.5,2.5h21c1.4,0,2.5-1.1,2.5-2.5V56.2     C63,54.8,61.9,53.7,60.5,53.7z"></path><path d="M76.5,32.4h15.9c0.9,0,1.5-0.8,1.4-1.7l-0.4-3.2c-0.3-2.4-1.9-4.4-4-5.3c-1.4,0.9-3.1,1.5-4.9,1.5     c-1.8,0-3.5-0.5-4.9-1.5c-2.1,0.9-3.7,2.9-4,5.3l-0.4,3.2C75,31.6,75.7,32.4,76.5,32.4z"></path><circle cx="84.5" cy="14.8" r="6.2"></circle><path d="M95,39.2H74c-1.4,0-2.5,1.1-2.5,2.5v47.1c0,1.4,1.1,2.5,2.5,2.5h21c1.4,0,2.5-1.1,2.5-2.5V41.8     C97.5,40.4,96.4,39.2,95,39.2z"></path></g></g></g></svg>